<svg xmlns="http://www.w3.org/2000/svg" viewBox="0 0 400 400" width="400" height="400">
<title>BLUSH</title>
<defs></defs>
<g id="BLUSH">
<path d="M143 227 C148 224 154 226 152 230 C150 235 139 239 136 235 C133 231 139 228 143 227 Z" fill="#ee61e7" opacity="0.9"/>
<path d="M154 231 C158 226 164 229 163 233 C161 239 154 244 150 241 C146 238 151 233 154 231 Z" fill="#f77aeb" opacity="0.87"/>
<path d="M281 236 C287 231 292 233 290 239 C287 245 278 249 275 245 C273 242 277 239 281 236 Z" fill="#ed66e5" opacity="0.9"/>
<path d="M294 237 C300 233 305 238 301 243 C298 247 291 250 289 246 C287 243 291 240 294 237 Z" fill="#f77aeb" opacity="0.85"/>
</g>
</svg>
